<svg viewBox="0 0 24 24" xmlns="http://www.w3.org/2000/svg"><path d="M5 16.39V7.64H6.16V11.24H10.71V7.64H11.86V16.39H10.71V12.27H6.16V16.39ZM19 15.36V16.36H13.22A1.83 1.83 0 0113.34 15.62A4 4 0 0114.05 14.45A10.47 10.47 0 0115.46 13.13A11.44 11.44 0 0017.38 11.27A2.15 2.15 0 0017.88 9.98A1.44 1.44 0 0017.43 8.91A1.62 1.62 0 0016.24 8.47A1.67 1.67 0 0015 9A1.79 1.79 0 0014.52 10.29L13.42 10.18A2.72 2.72 0 0114.27 8.3A2.89 2.89 0 0116.27 7.65A2.75 2.75 0 0118.27 8.35A2.28 2.28 0 0119 10A2.51 2.51 0 0118.78 11A4 4 0 0118.07 12.07A17.75 17.75 0 0116.41 13.61C15.77 14.15 15.41 14.51 15.17 14.71A3.36 3.36 0 0014.72 15.29Z"></path></svg>