<svg viewBox="0 0 24 24" xmlns="http://www.w3.org/2000/svg"><path d="M5 16.29V7.59H6.15V11.16H10.67V7.59H11.82V16.29H10.67V12.19H6.15V16.29ZM13.31 14 14.37 13.86A2.47 2.47 0 0015 15.16A1.57 1.57 0 0016.08 15.56A1.76 1.76 0 0017.35 15A1.8 1.8 0 0017.87 13.7A1.64 1.64 0 0017.39 12.49A1.66 1.66 0 0016.17 12.01A3 3 0 0015.41 12.13L15.53 11.2H15.7A2.17 2.17 0 0016.93 10.84A1.23 1.23 0 0017.48 9.74A1.32 1.32 0 0017.08 8.74A1.41 1.41 0 0016.08 8.36A1.44 1.44 0 0015.08 8.75A2 2 0 0014.48 10L13.41 9.81A2.75 2.75 0 0114.3 8.15A2.61 2.61 0 0116 7.56A2.9 2.9 0 0117.31 7.86A2.34 2.34 0 0118.23 8.7A2.13 2.13 0 0118.54 9.82A1.82 1.82 0 0118.24 10.82A2.05 2.05 0 0117.35 11.56A2 2 0 0118.54 12.3A2.2 2.2 0 0118.97 13.7A2.58 2.58 0 0118.14 15.63A2.9 2.9 0 0116.04 16.42A2.75 2.75 0 0114.14 15.74A2.65 2.65 0 0113.31 14Z"></path></svg>