<svg viewBox="0 0 24 24" xmlns="http://www.w3.org/2000/svg"><path d="M5 16.25V7.6H6.15V11.15H10.64V7.6H11.79V16.25H10.64V12.17H6.15V16.25ZM13.26 14 14.38 13.9A2 2 0 0015 15.12A1.61 1.61 0 0016.09 15.53A1.72 1.72 0 0017.39 14.95A2.17 2.17 0 0017.92 13.41A2 2 0 0017.36 12A1.77 1.77 0 0016 11.45A1.79 1.79 0 0015.07 11.69A1.71 1.71 0 0014.42 12.29L13.42 12.16 14.26 7.72H18.56V8.72H15.14L14.67 11.05A2.84 2.84 0 0116.31 10.51A2.6 2.6 0 0118.22 11.29A2.74 2.74 0 0119 13.29A3.19 3.19 0 0118.32 15.29A2.76 2.76 0 0116.04 16.29A2.78 2.78 0 0114.12 15.63A2.58 2.58 0 0113.26 14Z"></path></svg>