<svg viewBox="0 0 24 24" xmlns="http://www.w3.org/2000/svg"><path d="M5 16.29V7.6H6.15V11.17H10.67V7.6H11.82V16.29H10.67V12.19H6.15V16.29ZM18.85 9.73 17.78 9.81A2 2 0 0017.38 8.89A1.52 1.52 0 0015.38 8.72A2.51 2.51 0 0014.58 9.8A5.75 5.75 0 0014.28 11.8A2.43 2.43 0 0115.22 10.93A2.53 2.53 0 0116.39 10.64A2.41 2.41 0 0118.21 11.43A2.81 2.81 0 0118.96 13.43A3.43 3.43 0 0118.65 15A2.53 2.53 0 0116.28 16.45A2.75 2.75 0 0114.1 15.45A5 5 0 0113.26 12.21A5.78 5.78 0 0114.19 8.55A2.66 2.66 0 0116.38 7.55A2.34 2.34 0 0118.85 9.72ZM14.49 13.47A2.44 2.44 0 0014.72 14.53A1.73 1.73 0 0015.38 15.3A1.67 1.67 0 0016.26 15.56A1.5 1.5 0 0017.42 15A2.14 2.14 0 0017.91 13.51A2 2 0 0017.43 12.09A1.61 1.61 0 0016.22 11.57A1.69 1.69 0 0014.99 12.09A1.86 1.86 0 0014.49 13.47Z"></path></svg>