<svg viewBox="0 0 24 24" xmlns="http://www.w3.org/2000/svg"><path d="M9.55 6.21H19V8.31H9.55ZM9.55 15.66H19V17.76H9.55ZM9.55 10.94H19V13H9.55ZM6 8.31H5.62V6.84A1.34 1.34 0 015.12 7.14V6.78A1 1 0 005.45 6.59A.76.76 0 005.7 6.27H6ZM5 17.22 5.37 17.22A.3.3 0 005.47 17.44A.26.26 0 005.66 17.52A.28.28 0 005.86 17.43A.37.37 0 006 17.13A.36.36 0 005.92 16.9A.27.27 0 005.73 16.82L5.55 16.82 5.55 16.5A.33.33 0 005.79 16.44A.22.22 0 005.87 16.25A.24.24 0 005.81 16.08A.21.21 0 005.65 16.02A.24.24 0 005.49 16.09A.31.31 0 005.4 16.29L5.05 16.23A.7.7 0 015.16 16A.51.51 0 015.37 15.83A.73.73 0 015.67 15.77A.6.6 0 016.12 15.95A.49.49 0 016.26 16.28A.47.47 0 015.97 16.7A.48.48 0 016.25 16.87A.46.46 0 016.35 17.18A.58.58 0 016.16 17.63A.71.71 0 015.23 17.63A.63.63 0 015 17.22ZM6.35 12.66V13H5A1 1 0 015.13 12.61A3.18 3.18 0 015.57 12.12A2.38 2.38 0 005.9 11.79A.46.46 0 006 11.57A.32.32 0 005.93 11.37A.26.26 0 005.73 11.3A.29.29 0 005.54 11.37A.36.36 0 005.46 11.62L5.07 11.62A.63.63 0 015.28 11.16A.72.72 0 015.72 11A.68.68 0 016.2 11.16A.54.54 0 016.37 11.56A.81.81 0 016.37 11.83A1.08 1.08 0 016.21 12.09A2.59 2.59 0 015.96 12.35L5.72 12.57 5.64 12.68Z"></path></svg>