<svg viewBox="0 0 24 24" xmlns="http://www.w3.org/2000/svg"><path d="M10.13 11.35A.41.41 0 0010.03 11.14L9.17 10.45A.33.33 0 008.91 10.45L5.7 13.56H5.7A2.38 2.38 0 005.7 16.91L7.08 18.27A2.29 2.29 0 008.73 19A2.36 2.36 0 0010.39 18.32L13.63 15A.31.31 0 0013.63 14.81L12.63 13.9A.38.38 0 0012.47 13.96L9.23 17.19A.71.71 0 018.67 17.42A.68.68 0 018.12 17.19L6.75 15.82A.8.8 0 016.75 14.72ZM13.88 12.65A.26.26 0 0013.98 12.85L14.84 13.55A.31.31 0 0015.09 13.55L18.31 10.43H18.31A2.38 2.38 0 0018.31 7.09L16.94 5.72A2.39 2.39 0 0013.62 5.72L10.38 9.05A.21.21 0 0010.38 9.24L11.33 10.14A.33.33 0 0011.49 10.09L14.78 6.8A.75.75 0 0115.34 6.57A.78.78 0 0115.89 6.8L17.26 8.18A.83.83 0 0117.26 9.28ZM14.45 10.59A.44.44 0 0014.56 10.35A.41.41 0 0014.45 10.11L13.85 9.51A.58.58 0 0013.61 9.4A.3.3 0 0013.37 9.51L9.62 13.24A.39.39 0 009.52 13.48A.33.33 0 009.62 13.72L10.23 14.32A.41.41 0 0010.47 14.43A.34.34 0 0010.71 14.32ZM15 17.83 16.42 16.42 15 15 15.59 14.42 17 15.83 18.4 14.43 19 15 17.6 16.4 19 17.8 18.41 18.4 17 17 15.6 18.43Z"></path></svg>