<svg viewBox="0 0 24 24" xmlns="http://www.w3.org/2000/svg"><path d="M 3 11.3 H 21 v 1.5 H 3 Z M 16.63 13.7 A 3.51 3.51 0 0 1 17 15.29 A 3.25 3.25 0 0 1 15.67 18 a 5.56 5.56 0 0 1 -3.47 1 a 6.25 6.25 0 0 1 -2.62 -0.54 A 4.43 4.43 0 0 1 7.69 17 A 3.71 3.71 0 0 1 7 14.81 V 14.7 H 9 v 0.11 a 2.17 2.17 0 0 0 0.86 1.83 a 3.62 3.62 0 0 0 2.32 0.68 a 3.41 3.41 0 0 0 2.08 -0.54 a 1.76 1.76 0 0 0 0.7 -1.47 a 1.69 1.69 0 0 0 -0.65 -1.43 l -0.27 -0.18 Z M 16.34 7.06 a 4.19 4.19 0 0 0 -1.72 -1.51 A 5.71 5.71 0 0 0 12.11 5 A 5.16 5.16 0 0 0 8.75 6.07 a 3.34 3.34 0 0 0 -1.31 2.7 a 3.26 3.26 0 0 0 0.33 1.43 h 2.59 a 1.63 1.63 0 0 1 -0.65 -1.3 a 1.77 1.77 0 0 1 0.69 -1.51 a 3 3 0 0 1 2 -0.55 a 3.1 3.1 0 0 1 2.11 0.66 a 2.36 2.36 0 0 1 0.73 1.84 v 0.11 H 17 A 3.91 3.91 0 0 0 16.34 7.06 Z"></path></svg>