<svg viewBox="0 0 24 24" xmlns="http://www.w3.org/2000/svg"><path d="M3.63 15.22 7.87 11 3.66 6.77 5.43 5 9.64 9.21 13.85 5 15.64 6.79 11.44 11 15.64 15.21 13.87 17 9.66 12.77 5.42 17ZM20.37 18.29V19H16.42A1.24 1.24 0 0116.5 18.49A2.83 2.83 0 0116.98 17.69A8.18 8.18 0 0117.98 16.79A8 8 0 0019.29 15.52A1.5 1.5 0 0019.64 14.64A1 1 0 0019.32 13.9A1.11 1.11 0 0018.51 13.6A1.16 1.16 0 0017.66 13.92A1.2 1.2 0 0017.34 14.8L16.58 14.72A1.86 1.86 0 0117.17 13.44A2 2 0 0118.5 13A1.9 1.9 0 0119.86 13.48A1.58 1.58 0 0120.36 14.66A1.78 1.78 0 0120.21 15.37A2.61 2.61 0 0119.73 16.1A11 11 0 0118.59 17.15A9 9 0 0017.75 17.91A2.12 2.12 0 0017.44 18.3Z"></path></svg>