<svg viewBox="0 0 24 24" xmlns="http://www.w3.org/2000/svg"><path d="M3.63 17.21 7.87 13 3.66 8.76 5.43 7 9.64 11.2 13.85 7 15.64 8.8 11.44 13 15.64 17.21 13.87 19 9.66 14.76 5.42 19ZM20.37 10.3V11H16.42A1.3 1.3 0 0116.5 10.49A2.66 2.66 0 0117 9.7A8.15 8.15 0 0118 8.79A8 8 0 0019.31 7.53A1.55 1.55 0 0019.66 6.64A1 1 0 0019.34 5.91A1.11 1.11 0 0018.53 5.61A1.16 1.16 0 0017.68 5.92A1.22 1.22 0 0017.36 6.8L16.6 6.73A1.89 1.89 0 0117.19 5.44A2 2 0 0118.5 5A1.94 1.94 0 0119.86 5.47A1.6 1.6 0 0120.36 6.66A1.73 1.73 0 0120.21 7.36A2.48 2.48 0 0119.73 8.09A12.06 12.06 0 0118.59 9.15Q17.93 9.7 17.75 9.9A1.88 1.88 0 0017.44 10.3Z"></path></svg>